<?xml version="1.0" encoding="UTF-8" standalone="no"?>
<!DOCTYPE svg PUBLIC "-//W3C//DTD SVG 1.1//EN"
 "http://www.w3.org/Graphics/SVG/1.1/DTD/svg11.dtd">
<!-- Generated by graphviz version 2.38.0 (20140413.2041)
 -->
<!-- Title: G Pages: 1 -->
<svg width="288pt" height="54pt"
 viewBox="0.00 0.00 288.00 53.93" xmlns="http://www.w3.org/2000/svg" xmlns:xlink="http://www.w3.org/1999/xlink">
<g id="graph0" class="graph" transform="scale(0.20742 0.20742) rotate(0) translate(4 256)">
<title>G</title>
<!-- fanbelt.fanbeltBroken -->
<g id="node1" class="node"><title>fanbelt.fanbeltBroken</title>
<g id="a_node1"><a xlink:title="(0) fanbelt.fanbeltBroken">
<ellipse fill="#404040" stroke="black" cx="493.595" cy="-234" rx="88.2844" ry="18"/>
<text text-anchor="middle" x="493.595" y="-230.3" font-family="Times New Roman,serif" font-size="14.00" fill="white">fanbelt.fanbeltBroken</text>
</a>
</g>
</g>
<!-- car.ChargingError -->
<g id="node9" class="node"><title>car.ChargingError</title>
<g id="a_node9"><a xlink:title="(8) car.ChargingError">
<ellipse fill="#404040" stroke="black" cx="387.595" cy="-162" rx="76.0865" ry="18"/>
<text text-anchor="middle" x="387.595" y="-158.3" font-family="Times New Roman,serif" font-size="14.00" fill="white">car.ChargingError</text>
</a>
</g>
</g>
<!-- fanbelt.fanbeltBroken&#45;&gt;car.ChargingError -->
<g id="edge15" class="edge"><title>fanbelt.fanbeltBroken&#45;&gt;car.ChargingError</title>
<g id="a_edge15"><a xlink:title="(0, 8) : ">
<path fill="none" stroke="#4a4a4a" d="M468.743,-216.588C454.286,-207.041 435.893,-194.895 420.275,-184.581"/>
<polygon fill="#4a4a4a" stroke="#4a4a4a" points="422.2,-181.658 411.926,-179.068 418.342,-187.499 422.2,-181.658"/>
</a>
</g>
</g>
<!-- battery.batteryOld -->
<g id="node2" class="node"><title>battery.batteryOld</title>
<g id="a_node2"><a xlink:title="(1) battery.batteryOld">
<ellipse fill="#404040" stroke="black" cx="1033.6" cy="-234" rx="76.8869" ry="18"/>
<text text-anchor="middle" x="1033.6" y="-230.3" font-family="Times New Roman,serif" font-size="14.00" fill="white">battery.batteryOld</text>
</a>
</g>
</g>
<!-- battery.batteryDead -->
<g id="node3" class="node"><title>battery.batteryDead</title>
<g id="a_node3"><a xlink:title="(2) battery.batteryDead">
<ellipse fill="#404040" stroke="black" cx="1033.6" cy="-162" rx="81.7856" ry="18"/>
<text text-anchor="middle" x="1033.6" y="-158.3" font-family="Times New Roman,serif" font-size="14.00" fill="white">battery.batteryDead</text>
</a>
</g>
</g>
<!-- battery.batteryOld&#45;&gt;battery.batteryDead -->
<g id="edge4" class="edge"><title>battery.batteryOld&#45;&gt;battery.batteryDead</title>
<g id="a_edge4"><a xlink:title="(1, 2) : ">
<path fill="none" stroke="#4a4a4a" d="M1033.6,-215.697C1033.6,-207.983 1033.6,-198.712 1033.6,-190.112"/>
<polygon fill="#4a4a4a" stroke="#4a4a4a" points="1037.1,-190.104 1033.6,-180.104 1030.1,-190.104 1037.1,-190.104"/>
</a>
</g>
</g>
<!-- battery.batteryMeterOk -->
<g id="node4" class="node"><title>battery.batteryMeterOk</title>
<g id="a_node4"><a xlink:title="(3) battery.batteryMeterOk">
<ellipse fill="#404040" stroke="black" cx="1285.6" cy="-90" rx="94.7833" ry="18"/>
<text text-anchor="middle" x="1285.6" y="-86.3" font-family="Times New Roman,serif" font-size="14.00" fill="white">battery.batteryMeterOk</text>
</a>
</g>
</g>
<!-- battery.batteryDead&#45;&gt;battery.batteryMeterOk -->
<g id="edge13" class="edge"><title>battery.batteryDead&#45;&gt;battery.batteryMeterOk</title>
<g id="a_edge13"><a xlink:title="(2, 3) : ">
<path fill="none" stroke="#4a4a4a" d="M1082.18,-147.503C1122.87,-136.201 1181.14,-120.014 1224.9,-107.861"/>
<polygon fill="#4a4a4a" stroke="#4a4a4a" points="1225.86,-111.225 1234.56,-105.176 1223.99,-104.48 1225.86,-111.225"/>
</a>
</g>
</g>
<!-- car.batteryFlat -->
<g id="node10" class="node"><title>car.batteryFlat</title>
<g id="a_node10"><a xlink:title="(9) car.batteryFlat">
<ellipse fill="#404040" stroke="black" cx="387.595" cy="-90" rx="63.0888" ry="18"/>
<text text-anchor="middle" x="387.595" y="-86.3" font-family="Times New Roman,serif" font-size="14.00" fill="white">car.batteryFlat</text>
</a>
</g>
</g>
<!-- battery.batteryDead&#45;&gt;car.batteryFlat -->
<g id="edge5" class="edge"><title>battery.batteryDead&#45;&gt;car.batteryFlat</title>
<g id="a_edge5"><a xlink:title="(2, 9) : ">
<path fill="none" stroke="#4a4a4a" d="M954.231,-157.186C843.059,-151.048 634.906,-136.646 459.595,-108 454.129,-107.107 448.461,-106.032 442.815,-104.862"/>
<polygon fill="#4a4a4a" stroke="#4a4a4a" points="443.237,-101.373 432.723,-102.673 441.753,-108.214 443.237,-101.373"/>
</a>
</g>
</g>
<!-- starter.starterBroken -->
<g id="node5" class="node"><title>starter.starterBroken</title>
<g id="a_node5"><a xlink:title="(4) starter.starterBroken">
<ellipse fill="#404040" stroke="black" cx="969.595" cy="-90" rx="84.485" ry="18"/>
<text text-anchor="middle" x="969.595" y="-86.3" font-family="Times New Roman,serif" font-size="14.00" fill="white">starter.starterBroken</text>
</a>
</g>
</g>
<!-- starter.clickingSound -->
<g id="node6" class="node"><title>starter.clickingSound</title>
<g id="a_node6"><a xlink:title="(5) starter.clickingSound">
<ellipse fill="#404040" stroke="black" cx="1044.6" cy="-18" rx="87.1846" ry="18"/>
<text text-anchor="middle" x="1044.6" y="-14.3" font-family="Times New Roman,serif" font-size="14.00" fill="white">starter.clickingSound</text>
</a>
</g>
</g>
<!-- starter.starterBroken&#45;&gt;starter.clickingSound -->
<g id="edge11" class="edge"><title>starter.starterBroken&#45;&gt;starter.clickingSound</title>
<g id="a_edge11"><a xlink:title="(4, 5) : ">
<path fill="none" stroke="#4a4a4a" d="M987.751,-72.055C997.147,-63.2847 1008.78,-52.4318 1019.06,-42.8312"/>
<polygon fill="#4a4a4a" stroke="#4a4a4a" points="1021.68,-45.1709 1026.61,-35.789 1016.91,-40.0535 1021.68,-45.1709"/>
</a>
</g>
</g>
<!-- car.carWontStart -->
<g id="node14" class="node"><title>car.carWontStart</title>
<g id="a_node14"><a xlink:title="(13) car.carWontStart">
<ellipse fill="#404040" stroke="black" cx="865.595" cy="-18" rx="73.387" ry="18"/>
<text text-anchor="middle" x="865.595" y="-14.3" font-family="Times New Roman,serif" font-size="14.00" fill="white">car.carWontStart</text>
</a>
</g>
</g>
<!-- starter.starterBroken&#45;&gt;car.carWontStart -->
<g id="edge6" class="edge"><title>starter.starterBroken&#45;&gt;car.carWontStart</title>
<g id="a_edge6"><a xlink:title="(4, 13) : ">
<path fill="none" stroke="#4a4a4a" d="M945.212,-72.5881C931.159,-63.1297 913.316,-51.1198 898.085,-40.868"/>
<polygon fill="#4a4a4a" stroke="#4a4a4a" points="899.717,-37.7479 889.467,-35.0676 895.809,-43.555 899.717,-37.7479"/>
</a>
</g>
</g>
<!-- global.diagnosis -->
<g id="node18" class="node"><title>global.diagnosis</title>
<g id="a_node18"><a xlink:title="(17) global.diagnosis">
<ellipse fill="#404040" stroke="black" cx="704.595" cy="-18" rx="69.5877" ry="18"/>
<text text-anchor="middle" x="704.595" y="-14.3" font-family="Times New Roman,serif" font-size="14.00" fill="white">global.diagnosis</text>
</a>
</g>
</g>
<!-- starter.starterBroken&#45;&gt;global.diagnosis -->
<g id="edge19" class="edge"><title>starter.starterBroken&#45;&gt;global.diagnosis</title>
<g id="a_edge19"><a xlink:title="(4, 17) : ">
<path fill="none" stroke="#4a4a4a" d="M918.814,-75.5861C873.775,-63.6891 808.07,-46.3329 761.321,-33.9841"/>
<polygon fill="#4a4a4a" stroke="#4a4a4a" points="762.209,-30.5988 751.647,-31.4287 760.421,-37.3667 762.209,-30.5988"/>
</a>
</g>
</g>
<!-- tank.Empty -->
<g id="node7" class="node"><title>tank.Empty</title>
<g id="a_node7"><a xlink:title="(6) tank.Empty">
<ellipse fill="#404040" stroke="black" cx="622.595" cy="-90" rx="51.9908" ry="18"/>
<text text-anchor="middle" x="622.595" y="-86.3" font-family="Times New Roman,serif" font-size="14.00" fill="white">tank.Empty</text>
</a>
</g>
</g>
<!-- car.gasGaugeOk -->
<g id="node13" class="node"><title>car.gasGaugeOk</title>
<g id="a_node13"><a xlink:title="(12) car.gasGaugeOk">
<ellipse fill="#404040" stroke="black" cx="545.595" cy="-18" rx="71.4873" ry="18"/>
<text text-anchor="middle" x="545.595" y="-14.3" font-family="Times New Roman,serif" font-size="14.00" fill="white">car.gasGaugeOk</text>
</a>
</g>
</g>
<!-- tank.Empty&#45;&gt;car.gasGaugeOk -->
<g id="edge14" class="edge"><title>tank.Empty&#45;&gt;car.gasGaugeOk</title>
<g id="a_edge14"><a xlink:title="(6, 12) : ">
<path fill="none" stroke="#4a4a4a" d="M604.736,-72.7646C594.869,-63.7947 582.434,-52.4902 571.516,-42.5643"/>
<polygon fill="#4a4a4a" stroke="#4a4a4a" points="573.646,-39.7704 563.892,-35.6334 568.937,-44.95 573.646,-39.7704"/>
</a>
</g>
</g>
<!-- tank.Empty&#45;&gt;car.carWontStart -->
<g id="edge20" class="edge"><title>tank.Empty&#45;&gt;car.carWontStart</title>
<g id="a_edge20"><a xlink:title="(6, 13) : ">
<path fill="none" stroke="#4a4a4a" d="M661.368,-77.8309C701.565,-66.2515 764.768,-48.0448 810.219,-34.952"/>
<polygon fill="#4a4a4a" stroke="#4a4a4a" points="811.281,-38.2886 819.921,-32.1572 809.343,-31.5621 811.281,-38.2886"/>
</a>
</g>
</g>
<!-- tank.Empty&#45;&gt;global.diagnosis -->
<g id="edge3" class="edge"><title>tank.Empty&#45;&gt;global.diagnosis</title>
<g id="a_edge3"><a xlink:title="(6, 17) : ">
<path fill="none" stroke="#4a4a4a" d="M641.202,-73.1159C651.875,-64.0046 665.469,-52.4002 677.329,-42.2756"/>
<polygon fill="#4a4a4a" stroke="#4a4a4a" points="679.873,-44.7063 685.206,-35.5516 675.328,-39.3823 679.873,-44.7063"/>
</a>
</g>
</g>
<!-- tank.fuelLineBlocked -->
<g id="node8" class="node"><title>tank.fuelLineBlocked</title>
<g id="a_node8"><a xlink:title="(7) tank.fuelLineBlocked">
<ellipse fill="#404040" stroke="black" cx="779.595" cy="-90" rx="87.1846" ry="18"/>
<text text-anchor="middle" x="779.595" y="-86.3" font-family="Times New Roman,serif" font-size="14.00" fill="white">tank.fuelLineBlocked</text>
</a>
</g>
</g>
<!-- tank.fuelLineBlocked&#45;&gt;car.carWontStart -->
<g id="edge18" class="edge"><title>tank.fuelLineBlocked&#45;&gt;car.carWontStart</title>
<g id="a_edge18"><a xlink:title="(7, 13) : ">
<path fill="none" stroke="#4a4a4a" d="M799.976,-72.411C811.115,-63.3446 825.084,-51.9742 837.268,-42.0572"/>
<polygon fill="#4a4a4a" stroke="#4a4a4a" points="839.814,-44.4972 845.361,-35.4699 835.396,-39.0682 839.814,-44.4972"/>
</a>
</g>
</g>
<!-- tank.fuelLineBlocked&#45;&gt;global.diagnosis -->
<g id="edge21" class="edge"><title>tank.fuelLineBlocked&#45;&gt;global.diagnosis</title>
<g id="a_edge21"><a xlink:title="(7, 17) : ">
<path fill="none" stroke="#4a4a4a" d="M761.44,-72.055C751.974,-63.2203 740.244,-52.2721 729.902,-42.6197"/>
<polygon fill="#4a4a4a" stroke="#4a4a4a" points="732.023,-39.812 722.325,-35.5475 727.247,-44.9294 732.023,-39.812"/>
</a>
</g>
</g>
<!-- car.ChargingError&#45;&gt;car.batteryFlat -->
<g id="edge2" class="edge"><title>car.ChargingError&#45;&gt;car.batteryFlat</title>
<g id="a_edge2"><a xlink:title="(8, 9) : ">
<path fill="none" stroke="#4a4a4a" d="M387.595,-143.697C387.595,-135.983 387.595,-126.712 387.595,-118.112"/>
<polygon fill="#4a4a4a" stroke="#4a4a4a" points="391.095,-118.104 387.595,-108.104 384.095,-118.104 391.095,-118.104"/>
</a>
</g>
</g>
<!-- car.lightsOk -->
<g id="node11" class="node"><title>car.lightsOk</title>
<g id="a_node11"><a xlink:title="(10) car.lightsOk">
<ellipse fill="#404040" stroke="black" cx="54.5952" cy="-18" rx="54.6905" ry="18"/>
<text text-anchor="middle" x="54.5952" y="-14.3" font-family="Times New Roman,serif" font-size="14.00" fill="white">car.lightsOk</text>
</a>
</g>
</g>
<!-- car.batteryFlat&#45;&gt;car.lightsOk -->
<g id="edge12" class="edge"><title>car.batteryFlat&#45;&gt;car.lightsOk</title>
<g id="a_edge12"><a xlink:title="(9, 10) : ">
<path fill="none" stroke="#4a4a4a" d="M335.562,-79.7865C281.22,-69.9217 193.61,-53.3336 118.595,-36 114.192,-34.9825 109.631,-33.8766 105.066,-32.7335"/>
<polygon fill="#4a4a4a" stroke="#4a4a4a" points="105.679,-29.2776 95.1237,-30.1913 103.945,-36.0595 105.679,-29.2776"/>
</a>
</g>
</g>
<!-- car.noOilLightOn -->
<g id="node12" class="node"><title>car.noOilLightOn</title>
<g id="a_node12"><a xlink:title="(11) car.noOilLightOn">
<ellipse fill="#404040" stroke="black" cx="201.595" cy="-18" rx="74.187" ry="18"/>
<text text-anchor="middle" x="201.595" y="-14.3" font-family="Times New Roman,serif" font-size="14.00" fill="white">car.noOilLightOn</text>
</a>
</g>
</g>
<!-- car.batteryFlat&#45;&gt;car.noOilLightOn -->
<g id="edge8" class="edge"><title>car.batteryFlat&#45;&gt;car.noOilLightOn</title>
<g id="a_edge8"><a xlink:title="(9, 11) : ">
<path fill="none" stroke="#4a4a4a" d="M350.848,-75.1703C321.872,-64.2654 281.227,-48.9688 249.667,-37.0916"/>
<polygon fill="#4a4a4a" stroke="#4a4a4a" points="250.779,-33.7706 240.187,-33.524 248.314,-40.322 250.779,-33.7706"/>
</a>
</g>
</g>
<!-- car.batteryFlat&#45;&gt;car.gasGaugeOk -->
<g id="edge24" class="edge"><title>car.batteryFlat&#45;&gt;car.gasGaugeOk</title>
<g id="a_edge24"><a xlink:title="(9, 12) : ">
<path fill="none" stroke="#4a4a4a" d="M420.333,-74.496C444.162,-63.9389 476.661,-49.5406 502.584,-38.0555"/>
<polygon fill="#4a4a4a" stroke="#4a4a4a" points="504.084,-41.2192 511.809,-33.9684 501.249,-34.8191 504.084,-41.2192"/>
</a>
</g>
</g>
<!-- car.batteryFlat&#45;&gt;car.carWontStart -->
<g id="edge17" class="edge"><title>car.batteryFlat&#45;&gt;car.carWontStart</title>
<g id="a_edge17"><a xlink:title="(9, 13) : ">
<path fill="none" stroke="#4a4a4a" d="M433.13,-77.3694C441.875,-75.3856 450.989,-73.4884 459.595,-72 602.362,-47.3078 640.503,-58.731 783.595,-36 789.814,-35.0121 796.276,-33.8718 802.721,-32.659"/>
<polygon fill="#4a4a4a" stroke="#4a4a4a" points="803.646,-36.0449 812.796,-30.705 802.313,-29.173 803.646,-36.0449"/>
</a>
</g>
</g>
<!-- car.batteryFlat&#45;&gt;global.diagnosis -->
<g id="edge9" class="edge"><title>car.batteryFlat&#45;&gt;global.diagnosis</title>
<g id="a_edge9"><a xlink:title="(9, 17) : ">
<path fill="none" stroke="#4a4a4a" d="M434.429,-77.8072C442.803,-75.8444 451.452,-73.8419 459.595,-72 477.334,-67.9874 576.377,-46.6155 642.976,-32.2666"/>
<polygon fill="#4a4a4a" stroke="#4a4a4a" points="643.922,-35.6432 652.961,-30.1156 642.448,-28.8001 643.922,-35.6432"/>
</a>
</g>
</g>
<!-- alternator.alternatorBroken -->
<g id="node15" class="node"><title>alternator.alternatorBroken</title>
<g id="a_node15"><a xlink:title="(14) alternator.alternatorBroken">
<ellipse fill="#404040" stroke="black" cx="280.595" cy="-234" rx="106.681" ry="18"/>
<text text-anchor="middle" x="280.595" y="-230.3" font-family="Times New Roman,serif" font-size="14.00" fill="white">alternator.alternatorBroken</text>
</a>
</g>
</g>
<!-- alternator.alternatorBroken&#45;&gt;car.ChargingError -->
<g id="edge23" class="edge"><title>alternator.alternatorBroken&#45;&gt;car.ChargingError</title>
<g id="a_edge23"><a xlink:title="(14, 8) : ">
<path fill="none" stroke="#4a4a4a" d="M305.953,-216.411C320.314,-207.016 338.458,-195.146 353.992,-184.983"/>
<polygon fill="#4a4a4a" stroke="#4a4a4a" points="356.337,-187.632 362.789,-179.228 352.504,-181.774 356.337,-187.632"/>
</a>
</g>
</g>
<!-- oil.noOil -->
<g id="node16" class="node"><title>oil.noOil</title>
<g id="a_node16"><a xlink:title="(15) oil.noOil">
<ellipse fill="#404040" stroke="black" cx="510.595" cy="-90" rx="42.4939" ry="18"/>
<text text-anchor="middle" x="510.595" y="-86.3" font-family="Times New Roman,serif" font-size="14.00" fill="white">oil.noOil</text>
</a>
</g>
</g>
<!-- oil.noOil&#45;&gt;car.noOilLightOn -->
<g id="edge7" class="edge"><title>oil.noOil&#45;&gt;car.noOilLightOn</title>
<g id="a_edge7"><a xlink:title="(15, 11) : ">
<path fill="none" stroke="#4a4a4a" d="M479.215,-77.8884C472.768,-75.79 465.995,-73.7175 459.595,-72 458.408,-71.6814 342.315,-47.8586 266.281,-32.2641"/>
<polygon fill="#4a4a4a" stroke="#4a4a4a" points="266.795,-28.7968 256.296,-30.2162 265.389,-35.654 266.795,-28.7968"/>
</a>
</g>
</g>
<!-- oil.noOil&#45;&gt;car.carWontStart -->
<g id="edge1" class="edge"><title>oil.noOil&#45;&gt;car.carWontStart</title>
<g id="a_edge1"><a xlink:title="(15, 13) : ">
<path fill="none" stroke="#4a4a4a" d="M541.649,-77.766C548.181,-75.6527 555.07,-73.6055 561.595,-72 658.656,-48.1183 685.301,-54.1498 783.595,-36 789.694,-34.8739 796.037,-33.6511 802.373,-32.395"/>
<polygon fill="#4a4a4a" stroke="#4a4a4a" points="803.174,-35.8041 812.289,-30.403 801.796,-28.9412 803.174,-35.8041"/>
</a>
</g>
</g>
<!-- oil.dipstickLevelOk -->
<g id="node17" class="node"><title>oil.dipstickLevelOk</title>
<g id="a_node17"><a xlink:title="(16) oil.dipstickLevelOk">
<ellipse fill="#404040" stroke="black" cx="374.595" cy="-18" rx="81.4863" ry="18"/>
<text text-anchor="middle" x="374.595" y="-14.3" font-family="Times New Roman,serif" font-size="14.00" fill="white">oil.dipstickLevelOk</text>
</a>
</g>
</g>
<!-- oil.noOil&#45;&gt;oil.dipstickLevelOk -->
<g id="edge22" class="edge"><title>oil.noOil&#45;&gt;oil.dipstickLevelOk</title>
<g id="a_edge22"><a xlink:title="(15, 16) : ">
<path fill="none" stroke="#4a4a4a" d="M484.694,-75.6688C464.78,-65.4187 436.924,-51.0808 414.214,-39.392"/>
<polygon fill="#4a4a4a" stroke="#4a4a4a" points="415.648,-36.1936 405.155,-34.7291 412.444,-42.4176 415.648,-36.1936"/>
</a>
</g>
</g>
<!-- oil.noOil&#45;&gt;global.diagnosis -->
<g id="edge16" class="edge"><title>oil.noOil&#45;&gt;global.diagnosis</title>
<g id="a_edge16"><a xlink:title="(15, 17) : ">
<path fill="none" stroke="#4a4a4a" d="M541.765,-77.7533C572.604,-66.6256 620.253,-49.4327 656.053,-36.5154"/>
<polygon fill="#4a4a4a" stroke="#4a4a4a" points="657.593,-39.6804 665.812,-32.994 655.217,-33.0959 657.593,-39.6804"/>
</a>
</g>
</g>
<!-- callService -->
<g id="node19" class="node"><title>callService</title>
<g id="a_node19"><a xlink:title="(18) callService">
<ellipse fill="#404040" stroke="black" cx="1122.6" cy="-90" rx="50.0912" ry="18"/>
<text text-anchor="middle" x="1122.6" y="-86.3" font-family="Times New Roman,serif" font-size="14.00" fill="white">callService</text>
</a>
</g>
</g>
<!-- callService&#45;&gt;car.carWontStart -->
<g id="edge10" class="edge"><title>callService&#45;&gt;car.carWontStart</title>
<g id="a_edge10"><a xlink:title="(18, 13) : ">
<path fill="none" stroke="#4a4a4a" d="M1084.53,-78.1321C1077.25,-76.078 1069.69,-73.9599 1062.6,-72 1015.7,-59.0493 962.415,-44.7377 923.096,-34.2541"/>
<polygon fill="#4a4a4a" stroke="#4a4a4a" points="923.977,-30.8668 913.413,-31.6744 922.175,-37.6309 923.977,-30.8668"/>
</a>
</g>
</g>
</g>
</svg>
